<mxfile host="app.diagrams.net" modified="2023-08-02T14:54:58.327Z" agent="Mozilla/5.0 (Windows NT 10.0; Win64; x64) AppleWebKit/537.36 (KHTML, like Gecko) Chrome/115.0.0.0 Safari/537.36" etag="cFIen3F7xQwpk4OJkhlf" version="21.6.6" type="google">
  <diagram name="Page-1" id="8nf4c9BdcQKVejASHvOy">
    <mxGraphModel grid="1" page="1" gridSize="10" guides="1" tooltips="1" connect="1" arrows="1" fold="1" pageScale="1" pageWidth="850" pageHeight="1100" math="0" shadow="0">
      <root>
        <mxCell id="0" />
        <mxCell id="1" parent="0" />
        <mxCell id="zQNQmvBrmhgzhoAYZVcI-1" value="" style="whiteSpace=wrap;html=1;aspect=fixed;" vertex="1" parent="1">
          <mxGeometry x="160" y="120" width="1220" height="1220" as="geometry" />
        </mxCell>
        <mxCell id="zQNQmvBrmhgzhoAYZVcI-5" value="student" style="shape=umlActor;verticalLabelPosition=bottom;verticalAlign=top;html=1;outlineConnect=0;" vertex="1" parent="1">
          <mxGeometry x="20" y="670" width="30" height="60" as="geometry" />
        </mxCell>
        <mxCell id="zQNQmvBrmhgzhoAYZVcI-7" value="Login&lt;br&gt;" style="ellipse;whiteSpace=wrap;html=1;" vertex="1" parent="1">
          <mxGeometry x="290" y="140" width="120" height="80" as="geometry" />
        </mxCell>
        <mxCell id="e2SEGfPM1vQEZqHps7hW-2" value="admin" style="shape=umlActor;verticalLabelPosition=bottom;verticalAlign=top;html=1;outlineConnect=0;" vertex="1" parent="1">
          <mxGeometry x="1520" y="410" width="30" height="60" as="geometry" />
        </mxCell>
        <mxCell id="e2SEGfPM1vQEZqHps7hW-5" value="" style="endArrow=none;html=1;rounded=0;entryX=0;entryY=0.5;entryDx=0;entryDy=0;exitX=0.5;exitY=0.5;exitDx=0;exitDy=0;exitPerimeter=0;" edge="1" parent="1" source="zQNQmvBrmhgzhoAYZVcI-5" target="zQNQmvBrmhgzhoAYZVcI-7">
          <mxGeometry width="50" height="50" relative="1" as="geometry">
            <mxPoint x="60" y="340" as="sourcePoint" />
            <mxPoint x="150" y="250" as="targetPoint" />
          </mxGeometry>
        </mxCell>
        <mxCell id="e2SEGfPM1vQEZqHps7hW-6" value="" style="endArrow=none;html=1;rounded=0;exitX=1;exitY=0.5;exitDx=0;exitDy=0;entryX=0.5;entryY=0.5;entryDx=0;entryDy=0;entryPerimeter=0;" edge="1" parent="1" source="zQNQmvBrmhgzhoAYZVcI-7" target="e2SEGfPM1vQEZqHps7hW-2">
          <mxGeometry width="50" height="50" relative="1" as="geometry">
            <mxPoint x="680" y="310" as="sourcePoint" />
            <mxPoint x="730" y="260" as="targetPoint" />
          </mxGeometry>
        </mxCell>
        <mxCell id="e2SEGfPM1vQEZqHps7hW-7" value="View status attend for subject" style="ellipse;whiteSpace=wrap;html=1;" vertex="1" parent="1">
          <mxGeometry x="300" y="270" width="120" height="80" as="geometry" />
        </mxCell>
        <mxCell id="e2SEGfPM1vQEZqHps7hW-9" value="View status attend for week" style="ellipse;whiteSpace=wrap;html=1;" vertex="1" parent="1">
          <mxGeometry x="300" y="370" width="120" height="80" as="geometry" />
        </mxCell>
        <mxCell id="e2SEGfPM1vQEZqHps7hW-11" value="Course registration" style="ellipse;whiteSpace=wrap;html=1;" vertex="1" parent="1">
          <mxGeometry x="510" y="850" width="120" height="80" as="geometry" />
        </mxCell>
        <mxCell id="e2SEGfPM1vQEZqHps7hW-12" value="cancel course registration" style="ellipse;whiteSpace=wrap;html=1;" vertex="1" parent="1">
          <mxGeometry x="510" y="990" width="120" height="80" as="geometry" />
        </mxCell>
        <mxCell id="e2SEGfPM1vQEZqHps7hW-13" value="number of subjects studied" style="ellipse;whiteSpace=wrap;html=1;" vertex="1" parent="1">
          <mxGeometry x="300" y="470" width="120" height="80" as="geometry" />
        </mxCell>
        <mxCell id="e2SEGfPM1vQEZqHps7hW-15" value="" style="endArrow=none;html=1;rounded=0;entryX=0;entryY=0.5;entryDx=0;entryDy=0;exitX=0.5;exitY=0.5;exitDx=0;exitDy=0;exitPerimeter=0;" edge="1" parent="1" source="zQNQmvBrmhgzhoAYZVcI-5" target="e2SEGfPM1vQEZqHps7hW-9">
          <mxGeometry width="50" height="50" relative="1" as="geometry">
            <mxPoint x="60" y="340" as="sourcePoint" />
            <mxPoint x="160" y="310" as="targetPoint" />
          </mxGeometry>
        </mxCell>
        <mxCell id="e2SEGfPM1vQEZqHps7hW-17" value="" style="endArrow=none;html=1;rounded=0;exitX=0.5;exitY=0.5;exitDx=0;exitDy=0;exitPerimeter=0;entryX=0;entryY=0.5;entryDx=0;entryDy=0;" edge="1" parent="1" source="zQNQmvBrmhgzhoAYZVcI-5" target="e2SEGfPM1vQEZqHps7hW-7">
          <mxGeometry width="50" height="50" relative="1" as="geometry">
            <mxPoint x="400" y="530" as="sourcePoint" />
            <mxPoint x="450" y="480" as="targetPoint" />
          </mxGeometry>
        </mxCell>
        <mxCell id="e2SEGfPM1vQEZqHps7hW-18" value="" style="endArrow=none;html=1;rounded=0;entryX=0.008;entryY=0.425;entryDx=0;entryDy=0;entryPerimeter=0;exitX=0.5;exitY=0.5;exitDx=0;exitDy=0;exitPerimeter=0;" edge="1" parent="1" source="zQNQmvBrmhgzhoAYZVcI-5">
          <mxGeometry width="50" height="50" relative="1" as="geometry">
            <mxPoint x="80" y="320" as="sourcePoint" />
            <mxPoint x="300.96000000000004" y="604" as="targetPoint" />
          </mxGeometry>
        </mxCell>
        <mxCell id="e2SEGfPM1vQEZqHps7hW-20" value="" style="endArrow=none;html=1;rounded=0;exitX=0.5;exitY=0.5;exitDx=0;exitDy=0;exitPerimeter=0;entryX=0.017;entryY=0.588;entryDx=0;entryDy=0;entryPerimeter=0;" edge="1" parent="1" source="zQNQmvBrmhgzhoAYZVcI-5" target="e2SEGfPM1vQEZqHps7hW-13">
          <mxGeometry width="50" height="50" relative="1" as="geometry">
            <mxPoint x="400" y="550" as="sourcePoint" />
            <mxPoint x="450" y="500" as="targetPoint" />
          </mxGeometry>
        </mxCell>
        <mxCell id="e2SEGfPM1vQEZqHps7hW-21" value="take attendance for class" style="ellipse;whiteSpace=wrap;html=1;" vertex="1" parent="1">
          <mxGeometry x="990" y="360" width="120" height="80" as="geometry" />
        </mxCell>
        <mxCell id="e2SEGfPM1vQEZqHps7hW-22" value="profile" style="ellipse;whiteSpace=wrap;html=1;" vertex="1" parent="1">
          <mxGeometry x="510" y="1140" width="120" height="80" as="geometry" />
        </mxCell>
        <mxCell id="e2SEGfPM1vQEZqHps7hW-23" value="pass and not pass&amp;nbsp;" style="ellipse;whiteSpace=wrap;html=1;" vertex="1" parent="1">
          <mxGeometry x="300" y="570" width="120" height="80" as="geometry" />
        </mxCell>
        <mxCell id="e2SEGfPM1vQEZqHps7hW-25" value="take point for class" style="ellipse;whiteSpace=wrap;html=1;" vertex="1" parent="1">
          <mxGeometry x="730" y="570" width="120" height="80" as="geometry" />
        </mxCell>
        <mxCell id="e2SEGfPM1vQEZqHps7hW-26" value="status student" style="ellipse;whiteSpace=wrap;html=1;" vertex="1" parent="1">
          <mxGeometry x="510" y="720" width="120" height="80" as="geometry" />
        </mxCell>
        <mxCell id="e2SEGfPM1vQEZqHps7hW-28" value="" style="endArrow=none;html=1;rounded=0;entryX=0.5;entryY=0.5;entryDx=0;entryDy=0;entryPerimeter=0;exitX=1;exitY=0.5;exitDx=0;exitDy=0;" edge="1" parent="1" source="e2SEGfPM1vQEZqHps7hW-21" target="e2SEGfPM1vQEZqHps7hW-2">
          <mxGeometry width="50" height="50" relative="1" as="geometry">
            <mxPoint x="950" y="480" as="sourcePoint" />
            <mxPoint x="1000" y="430" as="targetPoint" />
          </mxGeometry>
        </mxCell>
        <mxCell id="e2SEGfPM1vQEZqHps7hW-30" value="add new student" style="ellipse;whiteSpace=wrap;html=1;" vertex="1" parent="1">
          <mxGeometry x="770" y="170" width="120" height="80" as="geometry" />
        </mxCell>
        <mxCell id="e2SEGfPM1vQEZqHps7hW-31" value="" style="endArrow=none;html=1;rounded=0;exitX=1;exitY=0.5;exitDx=0;exitDy=0;entryX=0.5;entryY=0.5;entryDx=0;entryDy=0;entryPerimeter=0;" edge="1" parent="1" source="e2SEGfPM1vQEZqHps7hW-30" target="e2SEGfPM1vQEZqHps7hW-2">
          <mxGeometry width="50" height="50" relative="1" as="geometry">
            <mxPoint x="920" y="270" as="sourcePoint" />
            <mxPoint x="970" y="220" as="targetPoint" />
          </mxGeometry>
        </mxCell>
        <mxCell id="e2SEGfPM1vQEZqHps7hW-32" value="" style="endArrow=none;html=1;rounded=0;entryX=1;entryY=0.5;entryDx=0;entryDy=0;exitX=0.5;exitY=0.5;exitDx=0;exitDy=0;exitPerimeter=0;" edge="1" parent="1" source="e2SEGfPM1vQEZqHps7hW-2" target="e2SEGfPM1vQEZqHps7hW-25">
          <mxGeometry width="50" height="50" relative="1" as="geometry">
            <mxPoint x="1030" y="489.9961538461538" as="sourcePoint" />
            <mxPoint x="960" y="506.15" as="targetPoint" />
          </mxGeometry>
        </mxCell>
        <mxCell id="e2SEGfPM1vQEZqHps7hW-41" value="class code" style="ellipse;whiteSpace=wrap;html=1;" vertex="1" parent="1">
          <mxGeometry x="730" y="360" width="120" height="80" as="geometry" />
        </mxCell>
        <mxCell id="e2SEGfPM1vQEZqHps7hW-42" value="&amp;lt;&amp;lt;include&amp;gt;&amp;gt;" style="html=1;verticalAlign=bottom;endArrow=open;dashed=1;endSize=8;edgeStyle=elbowEdgeStyle;elbow=vertical;curved=0;rounded=0;exitX=0;exitY=0.5;exitDx=0;exitDy=0;entryX=1;entryY=0.5;entryDx=0;entryDy=0;" edge="1" parent="1" source="e2SEGfPM1vQEZqHps7hW-21" target="e2SEGfPM1vQEZqHps7hW-41">
          <mxGeometry relative="1" as="geometry">
            <mxPoint x="950" y="390" as="sourcePoint" />
            <mxPoint x="870" y="390" as="targetPoint" />
          </mxGeometry>
        </mxCell>
        <mxCell id="e2SEGfPM1vQEZqHps7hW-47" value="&amp;lt;&amp;lt;include&amp;gt;&amp;gt;" style="html=1;verticalAlign=bottom;endArrow=open;dashed=1;endSize=8;edgeStyle=elbowEdgeStyle;elbow=vertical;curved=0;rounded=0;exitX=0.5;exitY=0;exitDx=0;exitDy=0;entryX=0.5;entryY=1;entryDx=0;entryDy=0;" edge="1" parent="1" source="e2SEGfPM1vQEZqHps7hW-25" target="e2SEGfPM1vQEZqHps7hW-41">
          <mxGeometry relative="1" as="geometry">
            <mxPoint x="850" y="490" as="sourcePoint" />
            <mxPoint x="770" y="490" as="targetPoint" />
          </mxGeometry>
        </mxCell>
        <mxCell id="e2SEGfPM1vQEZqHps7hW-48" value="display students" style="ellipse;whiteSpace=wrap;html=1;" vertex="1" parent="1">
          <mxGeometry x="980" y="140" width="120" height="80" as="geometry" />
        </mxCell>
        <mxCell id="e2SEGfPM1vQEZqHps7hW-49" value="" style="endArrow=none;html=1;rounded=0;exitX=1;exitY=0.5;exitDx=0;exitDy=0;entryX=0.5;entryY=0.5;entryDx=0;entryDy=0;entryPerimeter=0;" edge="1" parent="1" source="e2SEGfPM1vQEZqHps7hW-48" target="e2SEGfPM1vQEZqHps7hW-2">
          <mxGeometry width="50" height="50" relative="1" as="geometry">
            <mxPoint x="1170" y="250" as="sourcePoint" />
            <mxPoint x="1220" y="200" as="targetPoint" />
          </mxGeometry>
        </mxCell>
        <mxCell id="e2SEGfPM1vQEZqHps7hW-53" value="search student code" style="ellipse;whiteSpace=wrap;html=1;" vertex="1" parent="1">
          <mxGeometry x="950" y="910" width="120" height="80" as="geometry" />
        </mxCell>
        <mxCell id="e2SEGfPM1vQEZqHps7hW-54" value="" style="endArrow=none;html=1;rounded=0;entryX=0.5;entryY=0.5;entryDx=0;entryDy=0;entryPerimeter=0;exitX=1;exitY=0.5;exitDx=0;exitDy=0;" edge="1" parent="1" source="e2SEGfPM1vQEZqHps7hW-53" target="e2SEGfPM1vQEZqHps7hW-2">
          <mxGeometry width="50" height="50" relative="1" as="geometry">
            <mxPoint x="1430" y="760" as="sourcePoint" />
            <mxPoint x="1480" y="710" as="targetPoint" />
          </mxGeometry>
        </mxCell>
        <mxCell id="e2SEGfPM1vQEZqHps7hW-56" value="&amp;lt;&amp;lt;extend&amp;gt;&amp;gt;" style="html=1;verticalAlign=bottom;endArrow=open;dashed=1;endSize=8;edgeStyle=elbowEdgeStyle;elbow=vertical;curved=0;rounded=0;exitX=0.5;exitY=0;exitDx=0;exitDy=0;entryX=1;entryY=0.5;entryDx=0;entryDy=0;" edge="1" parent="1" source="e2SEGfPM1vQEZqHps7hW-53" target="e2SEGfPM1vQEZqHps7hW-26">
          <mxGeometry relative="1" as="geometry">
            <mxPoint x="850" y="820" as="sourcePoint" />
            <mxPoint x="770" y="820" as="targetPoint" />
            <Array as="points">
              <mxPoint x="970" y="760" />
            </Array>
          </mxGeometry>
        </mxCell>
        <mxCell id="e2SEGfPM1vQEZqHps7hW-57" value="&amp;lt;&amp;lt;extend&amp;gt;&amp;gt;" style="html=1;verticalAlign=bottom;endArrow=open;dashed=1;endSize=8;edgeStyle=elbowEdgeStyle;elbow=vertical;curved=0;rounded=0;exitX=0;exitY=0.5;exitDx=0;exitDy=0;entryX=1;entryY=0.5;entryDx=0;entryDy=0;" edge="1" parent="1" source="e2SEGfPM1vQEZqHps7hW-53" target="e2SEGfPM1vQEZqHps7hW-11">
          <mxGeometry relative="1" as="geometry">
            <mxPoint x="950" y="960" as="sourcePoint" />
            <mxPoint x="870" y="960" as="targetPoint" />
            <Array as="points">
              <mxPoint x="670" y="890" />
            </Array>
          </mxGeometry>
        </mxCell>
        <mxCell id="e2SEGfPM1vQEZqHps7hW-58" value="&amp;lt;&amp;lt;extend&amp;gt;&amp;gt;" style="html=1;verticalAlign=bottom;endArrow=open;dashed=1;endSize=8;edgeStyle=elbowEdgeStyle;elbow=vertical;curved=0;rounded=0;exitX=0;exitY=0.5;exitDx=0;exitDy=0;entryX=1;entryY=0.5;entryDx=0;entryDy=0;" edge="1" parent="1" source="e2SEGfPM1vQEZqHps7hW-53" target="e2SEGfPM1vQEZqHps7hW-12">
          <mxGeometry relative="1" as="geometry">
            <mxPoint x="860" y="1030" as="sourcePoint" />
            <mxPoint x="780" y="1030" as="targetPoint" />
            <Array as="points">
              <mxPoint x="840" y="1030" />
            </Array>
          </mxGeometry>
        </mxCell>
        <mxCell id="e2SEGfPM1vQEZqHps7hW-59" value="&amp;lt;&amp;lt;extend&amp;gt;&amp;gt;" style="html=1;verticalAlign=bottom;endArrow=open;dashed=1;endSize=8;edgeStyle=elbowEdgeStyle;elbow=vertical;curved=0;rounded=0;exitX=0.5;exitY=1;exitDx=0;exitDy=0;entryX=1;entryY=0.5;entryDx=0;entryDy=0;" edge="1" parent="1" source="e2SEGfPM1vQEZqHps7hW-53" target="e2SEGfPM1vQEZqHps7hW-22">
          <mxGeometry relative="1" as="geometry">
            <mxPoint x="840" y="1140" as="sourcePoint" />
            <mxPoint x="760" y="1140" as="targetPoint" />
            <Array as="points">
              <mxPoint x="840" y="1170" />
            </Array>
          </mxGeometry>
        </mxCell>
      </root>
    </mxGraphModel>
  </diagram>
</mxfile>
